<svg xmlns="http://www.w3.org/2000/svg" version="1.1" xmlns:xlink="http://www.w3.org/1999/xlink" width="500" height="500"><svg version="1.2" xmlns="http://www.w3.org/2000/svg" viewBox="0 0 500 500" width="500" height="500"><path aria-label="vs" d="M46.2 407.7q-22.6 0-33.1-14.5-10.5-14.6-10.5-37.9 0-24.2 9.7-54.1 10.5-30.6 27.4-61.3 17.8-31.4 39.5-56.4 21.8-25.8 44.4-39.5-21 .8-43.6 9.6-21.7 8.1-37.9 8.1-13.7 0-22.5-10.5-8.9-11.3-8.9-19.3 0-4.9 4.8-4.9 3.2 0 8.9 3.3 8.1 4.8 20.2 6.4 12 1.6 25.8 1.6 18.5 0 35.4-1.6 17.8-2.4 26.7-3.2 2.4-.8 5.6-.8h6.5q8.8 0 15.3 1.6 7.2 1.6 7.2 6.4 0 5.7-8.8 12.1-11.3 8.1-30.7 30.7-18.5 22.6-38.7 52.4-19.3 29.8-33.9 60.5-1.6 4.8-7.2 19.3-5.7 13.8-10.5 29.9t-4.8 29q0 19.4 13.7 19.4 24.2 0 49.2-18.6 25-18.5 47.5-48.4 22.6-29.8 40.4-64.5 17.7-34.7 28.2-68.5 10.5-33.9 10.5-59.7 0-13.7-.8-25t-4.1-21.8q2.5-.8 4.9-.8h4q18.6 0 26.6 16.9 8.9 17 8.9 37.9 0 41.2-27.4 93.6-26.6 51.6-70.2 101.6-14.5 15.3-33.1 32.3-17.7 16.1-38.7 27.4-20.9 11.3-45.9 11.3m281.4 8.8q-30.6 0-64.5-25-14.5-10.4-25-29-5.6-9.7-5.6-21 0-12.9 8.8-12.9 4.1 0 9.7 7.3 6.5 6.5 11.3 16.9 7.3 16.2 15.3 28.3 8.1 11.3 25.8 11.3 16.2 0 26.6-18.6 10.5-18.5 16.2-47.6 6.4-29 8.8-61.3 3.3-32.2 4.1-58.8.8-27.5 1.6-42-37.9 46-71.8 87.1-33.1 40.3-62.9 75.8-3.2 4.1-5.6 4.1-2.5 0-2.5-4.9 0-8.8 4.1-14.5 16.1-19.3 35.5-42.7 19.3-24.2 38.7-48.4 20.1-24.2 35.4-42.8 16.2-19.3 23.4-29 0-24.2 11.3-37.9 11.3-14.5 27.4-21 16.2-6.4 30.7-6.4 13.7 0 20.2 3.2 5.6 2.4 5.6 5.7 0 2.4-8.1 4.8-19.3 4.8-27.4 21-8.1 15.3-10.5 37.9-1.6 21.7-1.6 46.7 0 37.1-3.2 78.3-3.2 41.1-10.5 69.3-1.6 5.7-4.8 12.1-2.5 6.5-4.9 12.9 22.6-16.1 44.4-34.7 21.8-19.3 33.9-32.2 8.8-8.9 15.3-17 7.2-8.8 14.5-17.7 1.6-2.4 4-2.4 4.9 0 4.9 6.4 0 4.1-4.1 8.1-16.9 20.2-34.6 42.7-17 22.6-37.9 39.6-8.9 7.2-22.6 18.5t-27.4 18.6q-22.6 11.2-42 11.2" style="fill:#000"></path></svg><style>@media (prefers-color-scheme: light) { :root { filter: none; } }
@media (prefers-color-scheme: dark) { :root { filter: invert(100%); } }
</style></svg>